<svg width="33" height="40" viewBox="0 0 33 40" fill="none" xmlns="http://www.w3.org/2000/svg">
<path d="M31.8208 39.7734C31.4649 39.9417 31.0653 40.0187 30.6649 39.9962C30.2645 39.9736 29.8784 39.8524 29.5481 39.6454L0.947157 21.6445C0.654904 21.4604 0.416075 21.2147 0.25112 20.9283C0.0861651 20.642 6.54836e-07 20.3236 6.54836e-07 20.0004C6.54836e-07 19.6772 0.0861651 19.3587 0.25112 19.0724C0.416075 18.7861 0.654904 18.5404 0.947157 18.3563L29.5481 0.355344C29.8782 0.147719 30.2644 0.0261369 30.665 0.00376373C31.0657 -0.0186094 31.4654 0.0590786 31.8209 0.228416C32.1765 0.397753 32.4743 0.652287 32.6821 0.964456C32.8899 1.27663 32.9999 1.63454 33 1.99943V38.0013C33.0001 38.3664 32.8902 38.7246 32.6823 39.0369C32.4745 39.3493 32.1765 39.604 31.8208 39.7734Z" fill="black"/>
</svg>
