<svg width="33" height="40" viewBox="0 0 33 40" fill="none" xmlns="http://www.w3.org/2000/svg">
<path d="M1.17924 39.7734C1.53513 39.9417 1.93472 40.0187 2.33512 39.9962C2.73551 39.9736 3.12159 39.8524 3.45191 39.6454L32.0528 21.6445C32.3451 21.4604 32.5839 21.2147 32.7489 20.9283C32.9138 20.642 33 20.3236 33 20.0004C33 19.6772 32.9138 19.3587 32.7489 19.0724C32.5839 18.7861 32.3451 18.5404 32.0528 18.3563L3.45191 0.355344C3.12184 0.147719 2.73559 0.0261369 2.33497 0.00376373C1.93434 -0.0186094 1.53462 0.0590786 1.17908 0.228416C0.823544 0.397753 0.525736 0.652287 0.317904 0.964456C0.110071 1.27663 0.000135488 1.63454 2.98838e-08 1.99943V38.0013C-6.61504e-05 38.3664 0.10979 38.7246 0.317662 39.0369C0.525534 39.3493 0.823491 39.604 1.17924 39.7734Z" fill="black"/>
</svg>
